<svg xmlns="http://www.w3.org/2000/svg" width="1080" height="1350" viewBox="0 0 1080 1350">
  <rect width="1080" height="1350" fill="#1E3A8A"/>
  <circle cx="90" cy="1180" r="160" fill="#FFFFFF" opacity="0.04"/>
  <circle cx="1010" cy="250" r="130" fill="#FFFFFF" opacity="0.04"/>
  <circle cx="980" cy="1120" r="90" fill="#F97316" opacity="0.10"/>
  <circle cx="120" cy="320" r="70" fill="#F97316" opacity="0.10"/>
  <g transform="translate(540,185)">
    <polygon points="-58,-58 -28,-92 -10,-52" fill="#F97316"/>
    <polygon points="58,-58 28,-92 10,-52" fill="#F97316"/>
    <ellipse cx="0" cy="12" rx="84" ry="94" fill="#F97316"/>
    <ellipse cx="0" cy="38" rx="52" ry="58" fill="#FFF7ED"/>
    <circle cx="-34" cy="-22" r="32" fill="#FFF7ED"/>
    <circle cx="34" cy="-22" r="32" fill="#FFF7ED"/>
    <circle cx="-34" cy="-20" r="14" fill="#1E3A8A"/>
    <circle cx="34" cy="-20" r="14" fill="#1E3A8A"/>
    <circle cx="-29" cy="-25" r="4" fill="#FFFFFF"/>
    <circle cx="39" cy="-25" r="4" fill="#FFFFFF"/>
    <polygon points="-12,-4 12,-4 0,14" fill="#C2410C"/>
    <polygon points="-30,100 -14,100 -22,116" fill="#C2410C"/>
    <polygon points="30,100 14,100 22,116" fill="#C2410C"/>
  </g>
  <rect x="55" y="315" width="970" height="220" rx="32" fill="#FFF7ED"/>
  <text x="540" y="408" font-family="DejaVu Sans, sans-serif" font-size="56" font-weight="bold" fill="#1E3A8A" text-anchor="middle">¿Te sabes los 4 campos</text>
  <text x="540" y="478" font-family="DejaVu Sans, sans-serif" font-size="56" font-weight="bold" fill="#1E3A8A" text-anchor="middle">formativos de memoria?</text>
  <text x="540" y="582" font-family="DejaVu Sans, sans-serif" font-size="26" fill="#FFF7ED" text-anchor="middle">La NEM los reúne en 4 grandes campos. Aquí van clarito:</text>
  <g transform="translate(60,615)">
    <rect x="0" y="0" width="460" height="280" rx="24" fill="#FFFFFF" opacity="0.07"/>
    <rect x="0" y="0" width="460" height="280" rx="24" fill="none" stroke="#F97316" stroke-width="2"/>
    <circle cx="42" cy="42" r="22" fill="#F97316"/>
    <text x="42" y="50" font-family="DejaVu Sans, sans-serif" font-size="24" font-weight="bold" fill="#FFFFFF" text-anchor="middle">1</text>
    <path d="M185,58 Q207,50 230,54 L230,104 Q207,100 185,108 Z" fill="#FFF7ED" stroke="#F97316" stroke-width="3"/>
    <path d="M275,58 Q253,50 230,54 L230,104 Q253,100 275,108 Z" fill="#FFF7ED" stroke="#F97316" stroke-width="3"/>
    <text x="230" y="180" font-family="DejaVu Sans, sans-serif" font-size="28" font-weight="bold" fill="#F97316" text-anchor="middle">Lenguajes</text>
    <text x="230" y="222" font-family="DejaVu Sans, sans-serif" font-size="18" fill="#FFF7ED" text-anchor="middle">Español, inglés y artes</text>
  </g>
  <g transform="translate(560,615)">
    <rect x="0" y="0" width="460" height="280" rx="24" fill="#FFFFFF" opacity="0.07"/>
    <rect x="0" y="0" width="460" height="280" rx="24" fill="none" stroke="#F97316" stroke-width="2"/>
    <circle cx="42" cy="42" r="22" fill="#F97316"/>
    <text x="42" y="50" font-family="DejaVu Sans, sans-serif" font-size="24" font-weight="bold" fill="#FFFFFF" text-anchor="middle">2</text>
    <circle cx="222" cy="70" r="24" fill="none" stroke="#F97316" stroke-width="6"/>
    <line x1="240" y1="88" x2="262" y2="110" stroke="#F97316" stroke-width="9" stroke-linecap="round"/>
    <text x="230" y="168" font-family="DejaVu Sans, sans-serif" font-size="25" font-weight="bold" fill="#F97316" text-anchor="middle">Saberes y Pensamiento</text>
    <text x="230" y="200" font-family="DejaVu Sans, sans-serif" font-size="25" font-weight="bold" fill="#F97316" text-anchor="middle">Científico</text>
    <text x="230" y="240" font-family="DejaVu Sans, sans-serif" font-size="18" fill="#FFF7ED" text-anchor="middle">Matemáticas y ciencias</text>
  </g>
  <g transform="translate(60,915)">
    <rect x="0" y="0" width="460" height="280" rx="24" fill="#FFFFFF" opacity="0.07"/>
    <rect x="0" y="0" width="460" height="280" rx="24" fill="none" stroke="#F97316" stroke-width="2"/>
    <circle cx="42" cy="42" r="22" fill="#F97316"/>
    <text x="42" y="50" font-family="DejaVu Sans, sans-serif" font-size="24" font-weight="bold" fill="#FFFFFF" text-anchor="middle">3</text>
    <circle cx="230" cy="70" r="26" fill="#F97316"/>
    <ellipse cx="230" cy="70" rx="44" ry="15" fill="none" stroke="#FFF7ED" stroke-width="4" transform="rotate(-20 230 70)"/>
    <text x="230" y="168" font-family="DejaVu Sans, sans-serif" font-size="25" font-weight="bold" fill="#F97316" text-anchor="middle">Ética, Naturaleza</text>
    <text x="230" y="200" font-family="DejaVu Sans, sans-serif" font-size="25" font-weight="bold" fill="#F97316" text-anchor="middle">y Sociedades</text>
    <text x="230" y="240" font-family="DejaVu Sans, sans-serif" font-size="18" fill="#FFF7ED" text-anchor="middle">Historia y valores</text>
  </g>
  <g transform="translate(560,915)">
    <rect x="0" y="0" width="460" height="280" rx="24" fill="#FFFFFF" opacity="0.07"/>
    <rect x="0" y="0" width="460" height="280" rx="24" fill="none" stroke="#F97316" stroke-width="2"/>
    <circle cx="42" cy="42" r="22" fill="#F97316"/>
    <text x="42" y="50" font-family="DejaVu Sans, sans-serif" font-size="24" font-weight="bold" fill="#FFFFFF" text-anchor="middle">4</text>
    <path d="M230,100 C196,74 202,44 230,60 C258,44 264,74 230,100 Z" fill="#F97316"/>
    <text x="230" y="168" font-family="DejaVu Sans, sans-serif" font-size="25" font-weight="bold" fill="#F97316" text-anchor="middle">De lo Humano y</text>
    <text x="230" y="200" font-family="DejaVu Sans, sans-serif" font-size="25" font-weight="bold" fill="#F97316" text-anchor="middle">lo Comunitario</text>
    <text x="230" y="240" font-family="DejaVu Sans, sans-serif" font-size="18" fill="#FFF7ED" text-anchor="middle">Bienestar y vida diaria</text>
  </g>
  <text x="540" y="1278" font-family="DejaVu Sans, sans-serif" font-size="52" font-weight="bold" fill="#F97316" text-anchor="middle">ClaseSmart</text>
  <text x="540" y="1314" font-family="DejaVu Sans, sans-serif" font-size="22" fill="#FFF7ED" text-anchor="middle">Planeación para maestros de primaria</text>
</svg>
